<svg width="950" height="267" viewBox="0 0 950 267" fill="none" xmlns="http://www.w3.org/2000/svg">
<g clip-path="url(#clip0_23_821)">
<path d="M950 114.761C895.298 93.5264 836.875 76.8847 776.59 86.0709C717.701 95.0575 619.331 139.258 617.005 209.686C614.28 292.362 719.761 274.455 755.321 225.995C797.859 170.212 793.871 106.507 743.756 59.777C646.649 -30.8872 499.493 -3.12877 384.972 43.0021C313.321 71.8922 243.399 107.505 166.498 118.422C105.88 127.076 56.5626 112.498 0.0664368 98.8518C120.038 151.773 230.305 124.879 351.074 79.2811C473.372 33.1502 618.467 -10.1183 727.139 82.9423C771.14 120.619 776.191 176.669 737.774 222.933C719.097 245.499 688.921 263.472 659.61 253.553C629.966 243.502 621.126 211.749 633.488 184.124C657.882 129.406 731.991 95.8563 787.49 88.3342C843.654 80.679 898.555 95.8563 950.067 114.695L950 114.761Z" fill="#DCCDBF"/>
</g>
<defs>
<clipPath id="clip0_23_821">
<rect width="950" height="267" fill="white"/>
</clipPath>
</defs>
</svg>
