<svg width="60" height="28" viewBox="0 0 60 28" fill="none" xmlns="http://www.w3.org/2000/svg">
<g clip-path="url(#clip0_23_775)">
<path d="M5.06179 0H0V6.86996H5.06179V0Z" fill="white"/>
<path d="M17.0638 0H12.002V6.86996H17.0638V0Z" fill="white"/>
<path d="M17.0638 15.2513H12.002V22.1213H17.0638V15.2513Z" fill="white"/>
<path d="M5.06179 15.2513H0V22.1213H5.06179V15.2513Z" fill="white"/>
<path d="M17.0638 7.76305H0V8.47949H17.0638V7.76305Z" fill="white"/>
<path d="M17.0638 9.23519H0V9.95163H17.0638V9.23519Z" fill="white"/>
<path d="M17.0638 10.7073H0V11.4238H17.0638V10.7073Z" fill="white"/>
<path d="M17.0638 12.1795H0V12.8959H17.0638V12.1795Z" fill="white"/>
<path d="M17.0638 13.6516H0V14.368H17.0638V13.6516Z" fill="white"/>
<path d="M48.1661 7.37048H43.1043V22.1213H48.1661V7.37048Z" fill="white"/>
<path d="M60 7.37048H54.9382V22.1213H60V7.37048Z" fill="white"/>
<path d="M60 0H43.1043V0.814581H60V0Z" fill="white"/>
<path d="M60 1.46232H43.1043V2.2769H60V1.46232Z" fill="white"/>
<path d="M60 2.91483H43.1043V3.62145H60V2.91483Z" fill="white"/>
<path d="M60 4.4164H43.1043V5.07396H60V4.4164Z" fill="white"/>
<path d="M60 5.85909H43.1043V6.56572H60V5.85909Z" fill="white"/>
<path d="M21.9081 15.5163L21.5818 16.2327H29.0262L28.6406 15.5163H21.9081Z" fill="white"/>
<path d="M21.2259 16.9884L20.8898 17.7049H29.8369L29.4414 16.9884H21.2259Z" fill="white"/>
<path d="M20.5339 18.4606L20.2076 19.177H30.6377L30.2521 18.4606H20.5339Z" fill="white"/>
<path d="M19.8517 19.9327L19.5255 20.6491H31.4484L31.0529 19.9327H19.8517Z" fill="white"/>
<path d="M31.8636 21.4048H19.1696L18.8334 22.1213H32.2491L31.8636 21.4048Z" fill="white"/>
<path d="M41.3347 22.1213L29.8863 0C28.868 1.97266 27.83 3.98458 26.7919 6.00631L22.264 14.7606H29.3821L33.4553 22.1213H41.3347Z" fill="white"/>
<path d="M18.8334 28V25.625H19.2783V26.5573L20.1384 25.625H20.7217L19.743 26.6947L20.7613 28H20.2076L19.4563 27.0284L19.2882 27.2149V28.0098H18.8433L18.8334 28Z" fill="white"/>
<path d="M21.9377 28C21.7499 28 21.5818 27.9607 21.4434 27.8822C21.305 27.8037 21.1962 27.7056 21.1172 27.5682C21.0381 27.4308 20.9985 27.2738 20.9985 27.0873V25.625H21.4533V27.0873C21.4533 27.1854 21.4731 27.2738 21.5126 27.3523C21.5522 27.4308 21.6115 27.4799 21.6807 27.5191C21.7499 27.5584 21.8389 27.578 21.9377 27.578C22.0366 27.578 22.1256 27.5584 22.1948 27.5191C22.264 27.4799 22.3233 27.421 22.3628 27.3523C22.4024 27.2738 22.4221 27.1952 22.4221 27.0873V25.625H22.8769V27.0873C22.8769 27.2738 22.8374 27.4308 22.7583 27.5682C22.6792 27.7056 22.5704 27.8135 22.432 27.8822C22.2936 27.9607 22.1256 28 21.9278 28H21.9377Z" fill="white"/>
<path d="M23.8853 28V26.999L23.0648 25.625H23.5788L24.1028 26.5377L24.6367 25.625H25.1508L24.3302 26.9891V27.9902H23.8754L23.8853 28Z" fill="white"/>
<path d="M26.3371 28C26.1493 28 25.9812 27.9607 25.8428 27.8822C25.7044 27.8037 25.5957 27.7056 25.5166 27.5682C25.4375 27.4308 25.3979 27.2738 25.3979 27.0873V25.625H25.8527V27.0873C25.8527 27.1854 25.8725 27.2738 25.912 27.3523C25.9516 27.4308 26.0109 27.4799 26.0801 27.5191C26.1493 27.5584 26.2383 27.578 26.3371 27.578C26.436 27.578 26.525 27.5584 26.5942 27.5191C26.6634 27.4799 26.7227 27.421 26.7622 27.3523C26.8018 27.2738 26.8216 27.1952 26.8216 27.0873V25.625H27.2763V27.0873C27.2763 27.2738 27.2368 27.4308 27.1577 27.5682C27.0786 27.7056 26.9699 27.8135 26.8314 27.8822C26.693 27.9607 26.525 28 26.3272 28H26.3371Z" fill="white"/>
<path d="M27.7608 28V25.625H28.2551L28.9273 26.6456L29.5996 25.625H30.084V28H29.6392V26.3512L28.9273 27.4308L28.2155 26.361V28H27.7608Z" fill="white"/>
<path d="M31.6164 28C31.389 28 31.1913 27.9509 31.0232 27.843C30.8453 27.7448 30.7168 27.5976 30.6179 27.421C30.519 27.2443 30.4696 27.0382 30.4696 26.8027C30.4696 26.5671 30.519 26.3708 30.6179 26.1844C30.7168 25.9979 30.8552 25.8703 31.0232 25.7624C31.1913 25.6642 31.3989 25.6053 31.6164 25.6053C31.7746 25.6053 31.9229 25.6348 32.0613 25.6937C32.1997 25.7525 32.3183 25.8311 32.4172 25.9292C32.5161 26.0273 32.5952 26.1451 32.6545 26.2727L32.2393 26.4297C32.1997 26.3512 32.1503 26.2825 32.091 26.2138C32.0316 26.1549 31.9624 26.1059 31.8833 26.0764C31.8043 26.047 31.7153 26.0273 31.6263 26.0273C31.4879 26.0273 31.3693 26.0568 31.2704 26.1255C31.1616 26.1942 31.0826 26.2825 31.0232 26.4003C30.9639 26.5181 30.9343 26.6456 30.9343 26.8027C30.9343 26.9597 30.9639 27.0873 31.0232 27.2051C31.0826 27.3228 31.1616 27.4111 31.2704 27.4798C31.3791 27.5485 31.4978 27.578 31.6362 27.578C31.7351 27.578 31.8141 27.5584 31.8932 27.5191C31.9723 27.4799 32.0415 27.4308 32.1008 27.3719C32.1602 27.313 32.2096 27.2345 32.2491 27.156L32.6644 27.3032C32.605 27.4406 32.526 27.5584 32.4271 27.6565C32.3282 27.7546 32.2096 27.843 32.0712 27.892C31.9328 27.9411 31.7845 27.9804 31.6263 27.9804L31.6164 28Z" fill="white"/>
<path d="M33.8903 28C33.7024 28 33.5344 27.9607 33.3959 27.8822C33.2575 27.8037 33.1488 27.7056 33.0697 27.5682C32.9906 27.4308 32.9511 27.2738 32.9511 27.0873V25.625H33.4058V27.0873C33.4058 27.1854 33.4256 27.2738 33.4651 27.3523C33.5047 27.4308 33.564 27.4799 33.6332 27.5191C33.7024 27.5584 33.7914 27.578 33.8903 27.578C33.9891 27.578 34.0781 27.5584 34.1473 27.5191C34.2165 27.4799 34.2758 27.421 34.3154 27.3523C34.3549 27.2738 34.3747 27.1952 34.3747 27.0873V25.625H34.8295V27.0873C34.8295 27.2738 34.7899 27.4308 34.7108 27.5682C34.6317 27.7056 34.523 27.8135 34.3846 27.8822C34.2462 27.9509 34.0781 28 33.8804 28H33.8903Z" fill="white"/>
<path d="M35.3139 28V25.625H35.7687V27.5682H36.787V27.9902H35.3139V28Z" fill="white"/>
<path d="M37.9931 28C37.8053 28 37.6372 27.9607 37.4988 27.8822C37.3604 27.8037 37.2516 27.7056 37.1725 27.5682C37.0934 27.4308 37.0539 27.2738 37.0539 27.0873V25.625H37.5087V27.0873C37.5087 27.1854 37.5284 27.2738 37.568 27.3523C37.6075 27.4308 37.6668 27.4799 37.736 27.5191C37.8053 27.5584 37.8942 27.578 37.9931 27.578C38.092 27.578 38.1809 27.5584 38.2501 27.5191C38.3193 27.4799 38.3787 27.421 38.4182 27.3523C38.4578 27.2738 38.4775 27.1952 38.4775 27.0873V25.625H38.9323V27.0873C38.9323 27.2738 38.8927 27.4308 38.8137 27.5682C38.7346 27.7056 38.6258 27.8135 38.4874 27.8822C38.349 27.9607 38.1809 28 37.9832 28H37.9931Z" fill="white"/>
<path d="M39.4167 28V25.625H39.8616V26.5573L40.7217 25.625H41.305L40.3263 26.6947L41.3445 28H40.781L40.0297 27.0284L39.8616 27.2149V28.0098H39.4167V28Z" fill="white"/>
<path d="M60 26.4592H43.1043V27.1756H60V26.4592Z" fill="white"/>
<path d="M17.0638 26.4592H0V27.1756H17.0638V26.4592Z" fill="white"/>
</g>
<defs>
<clipPath id="clip0_23_775">
<rect width="60" height="28" fill="white"/>
</clipPath>
</defs>
</svg>
