<svg width="280" height="55" viewBox="0 0 280 55" fill="none" xmlns="http://www.w3.org/2000/svg">
<g clip-path="url(#clip0_23_746)">
<path d="M29.8453 5.77841C28.4332 5.1568 27.047 5.06049 25.6869 5.48949C24.3267 5.9185 23.0532 6.61891 21.8663 7.59949C21.2946 8.21235 20.7921 8.79895 20.3503 9.35928C22.854 10.6726 24.6386 12.6425 25.7215 15.2778C26.5705 17.5541 26.7178 19.848 26.146 22.1418C25.5743 24.4444 24.3874 26.3968 22.5767 27.999C20.6361 29.6187 18.4443 30.4943 16.0012 30.6431C13.5582 30.7919 11.2797 30.1703 9.16584 28.787C8.67203 29.0672 8.16956 29.3649 7.65842 29.6888C7.64109 29.6888 7.49381 29.8376 7.22525 30.1178C6.94802 30.398 6.66213 30.7744 6.35891 31.2385C6.0557 31.7025 5.83911 32.219 5.71782 32.7881C5.59654 33.3572 5.67451 33.9351 5.9604 34.5129C6.43688 35.1433 7 35.6686 7.66708 36.0801C8.81931 36.728 10.0149 36.9906 11.2624 36.8768C12.5012 36.763 13.7054 36.4303 14.8577 35.8699C15.7067 35.4585 16.573 34.9944 17.4653 34.4604C18.4356 33.8738 19.4319 33.3397 20.4455 32.8494C21.4678 32.3591 22.4988 32.0352 23.5557 31.8863C24.6126 31.7287 25.6869 31.8601 26.7698 32.2803C28.0866 32.8582 29.0656 33.76 29.7067 34.9769C30.3478 36.1939 30.7203 37.5247 30.8329 38.978C30.9369 40.4226 30.8503 41.7797 30.5557 43.0492C30.4777 44.5813 30.0012 45.9734 29.1176 47.2167C28.2339 48.4686 27.2116 49.5455 26.0507 50.4561C24.0755 52.0408 21.8837 53.2315 19.4753 54.0194C17.0668 54.8161 14.6064 55.1226 12.0941 54.9387C10.4394 54.7986 8.80198 54.4046 7.19926 53.748C5.58787 53.1001 4.14976 52.2071 2.87624 51.0602C1.60273 49.9132 0.649756 48.5387 0.00866699 46.9365L0.467825 46.7526C1.17822 48.5212 2.26981 49.9833 3.72525 51.1477C5.1807 52.3122 6.81807 53.1702 8.63738 53.7305C10.4567 54.2908 12.2587 54.536 14.052 54.4747C16.5644 54.3784 18.9814 53.8181 21.3205 52.7849C23.651 51.7518 25.6869 50.3247 27.4282 48.4949C28.2339 47.6632 28.8923 46.7264 29.4035 45.667C29.9146 44.6164 30.1312 43.4869 30.0359 42.2962C29.9146 41.1668 29.5074 40.1862 28.823 39.372C28.1386 38.549 27.2636 37.9712 26.198 37.6297C25.0978 37.3058 24.0149 37.1832 22.9579 37.2708C21.901 37.3583 20.8441 37.5685 19.8045 37.9011C18.7649 38.2338 17.7253 38.6103 16.6943 39.0306C15.724 39.4245 14.7451 39.7835 13.7574 40.1075C12.7698 40.4314 11.7735 40.6503 10.7772 40.7641C9.58169 40.9042 8.37748 40.8341 7.14728 40.5452C5.91708 40.2563 4.88614 39.6434 4.05446 38.7154C3.48268 38.0237 3.14481 37.262 3.04951 36.439C2.95421 35.616 3.03218 34.7931 3.30075 33.9876C3.56931 33.1734 3.97649 32.4467 4.51362 31.79C5.0854 31.0896 5.73515 30.468 6.46287 29.9339C7.1906 29.3999 7.94431 28.9096 8.72401 28.4631C6.7401 26.9484 5.39728 24.9873 4.66956 22.5883C4.09778 20.5134 4.08911 18.4559 4.64357 16.4247C5.19802 14.3935 6.25495 12.6337 7.79703 11.1541C9.4604 9.63944 11.375 8.70264 13.5495 8.33492C15.7153 7.96721 17.8292 8.23862 19.8824 9.13164C20.5582 8.26488 21.3465 7.39812 22.2302 6.5226C23.1139 5.64708 24.0842 4.87663 25.1238 4.21999C26.1634 3.56335 27.255 3.14311 28.3899 2.95049C29.5248 2.75788 30.677 2.93298 31.8465 3.45829L30.3564 5.21808C30.1918 5.40194 30.0272 5.59455 29.8626 5.78717L29.8453 5.77841ZM7.57178 29.7588L7.65842 29.6975C7.65842 29.6975 7.60644 29.7326 7.57178 29.7588ZM15.8366 30.1703C16.521 30.039 17.1275 29.7326 17.6473 29.2685C18.1671 28.7958 18.6002 28.2705 18.9554 27.6839C19.8824 26.1342 20.4802 24.4357 20.7488 22.5971C21.0173 20.7585 21.052 18.9462 20.8441 17.1689C20.6708 15.3391 20.1856 13.588 19.3886 11.9158C19.0334 11.1891 18.5656 10.515 17.9938 9.89334C17.422 9.27173 16.729 8.86899 15.9146 8.68513C15.5334 8.65886 15.1522 8.65886 14.7624 8.68513C14.026 8.85148 13.3849 9.20169 12.8478 9.74451C12.3106 10.2786 11.8688 10.8739 11.5136 11.5131C10.5866 13.2291 10.0149 15.0939 9.80693 17.1164C9.59901 19.1388 9.67698 21.1 10.0408 23.0086C10.1881 23.8929 10.448 24.8559 10.8205 25.8978C11.1931 26.9397 11.7042 27.859 12.354 28.6644C13.0124 29.4699 13.8354 29.969 14.8403 30.1703H15.1782C15.3948 30.1703 15.6114 30.1703 15.828 30.1703H15.8366Z" fill="white"/>
<path d="M41.5149 30.7919C40.0334 30.7919 38.6126 30.5118 37.2612 29.9427C35.9097 29.3736 34.7055 28.5594 33.6399 27.4912C32.5829 26.4231 31.7686 25.2061 31.2141 23.8403C30.651 22.4745 30.3738 21.0387 30.3738 19.5328C30.3738 18.0269 30.651 16.5998 31.2141 15.234C31.7772 13.8682 32.5829 12.6512 33.6399 11.5831C34.6968 10.515 35.9097 9.69198 37.2612 9.13165C38.6126 8.57132 40.0248 8.28239 41.5149 8.28239C43.005 8.28239 44.4258 8.56256 45.7772 9.13165C47.1287 9.70073 48.3329 10.515 49.3899 11.5831C50.4468 12.6512 51.2525 13.877 51.8156 15.234C52.3787 16.5998 52.6646 18.0269 52.6646 19.5328C52.6646 21.0387 52.3787 22.4745 51.8156 23.8403C51.2525 25.2061 50.4381 26.4231 49.3899 27.4912C48.3329 28.5594 47.1287 29.3736 45.7772 29.9427C44.4258 30.5118 43.005 30.7919 41.5149 30.7919ZM41.5149 30.2841C41.6795 30.2841 41.8441 30.2841 42 30.2754C42.9703 30.1003 43.8366 29.5224 44.6077 28.5331C45.3787 27.5525 45.9938 26.2743 46.4443 24.6983C46.9035 23.1312 47.1287 21.4064 47.1287 19.5328C47.1287 17.6592 46.9035 15.9694 46.4616 14.411C46.0112 12.8526 45.4134 11.5831 44.6597 10.5938C43.906 9.60443 43.0483 9.00907 42.0953 8.79895H41.5149C41.3243 8.79019 41.1337 8.79895 40.9344 8.80771C39.9815 9.00907 39.1238 9.60443 38.3701 10.5938C37.6164 11.5831 37.0186 12.8526 36.5681 14.411C36.1176 15.9694 35.901 17.6767 35.901 19.5328C35.901 21.3889 36.1263 23.1312 36.5854 24.6983C37.0446 26.2655 37.651 27.5438 38.422 28.5331C39.1844 29.5137 40.0594 30.1003 41.0297 30.2754H41.5235L41.5149 30.2841Z" fill="white"/>
<path d="M53.7215 30.4855C53.2624 30.0127 53.0371 29.4874 53.0371 28.9008C53.0371 28.6557 53.0718 28.4105 53.1497 28.1479L64.0742 9.02658H54.7178V8.77268V8.51878H69.9913L57.8366 29.9777H69.1596V30.4768H53.7215V30.4855Z" fill="white"/>
<path d="M92.5074 29.9865C92.7067 30.1441 92.9319 30.2316 93.1832 30.2491C93.4344 30.2666 93.6943 30.2579 93.9629 30.2404C94.0495 30.2404 94.1275 30.2316 94.2141 30.2316V30.4855H91.6758C90.974 30.4855 90.4802 30.4768 90.1943 30.4768C90.047 30.4768 89.8998 30.4768 89.7438 30.4855C89.4406 30.4855 89.1287 30.4855 88.8255 30.4768C88.5223 30.4592 88.2191 30.3892 87.9332 30.2754C87.1621 29.8902 86.703 29.3298 86.5557 28.5856C86.4084 27.8415 86.3651 27.0798 86.4171 26.283C86.4171 26.0379 86.4258 25.8015 86.4258 25.5826C85.3342 26.5632 84.1473 27.4825 82.8824 28.3493C81.6176 29.216 80.2661 29.8464 78.828 30.2491C78.2909 30.3892 77.7451 30.4768 77.1906 30.503C76.2723 30.503 75.4753 30.2666 74.7995 29.8026C74.1238 29.3386 73.5953 28.6907 73.2055 27.8502C72.755 26.8259 72.4864 25.7665 72.3998 24.6721C72.3131 23.5777 72.2785 22.4745 72.3131 21.3714C72.3131 21.0387 72.3218 20.706 72.3218 20.382V13.588C72.3218 13.2291 72.2525 12.9489 72.1485 12.7475C72.0446 12.5462 71.9059 12.3973 71.7413 12.3098C71.5767 12.2135 71.4121 12.1609 71.2475 12.1434C71.0829 12.1259 70.9443 12.1172 70.823 12.1434C70.7104 12.1609 70.6324 12.1697 70.6151 12.1697V11.9158C71.1956 11.9333 71.7673 11.8545 72.3305 11.6794C72.9889 11.478 73.604 11.2066 74.1844 10.8564C74.7649 10.5062 75.2847 10.156 75.7352 9.79704C76.1943 9.43807 76.6795 9.00032 77.1993 8.49252V23.4288C77.1993 23.6915 77.1993 23.9542 77.1906 24.2343C77.156 24.7509 77.156 25.2762 77.1906 25.8015C77.2166 26.3268 77.3292 26.8083 77.5112 27.2549C77.8057 27.8765 78.2302 28.2529 78.776 28.3755C79.3218 28.5068 79.9022 28.4981 80.526 28.3405C81.1411 28.1917 81.7042 27.999 82.198 27.7714C83.7661 27.0535 85.1782 26.1079 86.4517 24.9347V13.6055C86.4517 13.2553 86.3998 12.9752 86.2871 12.7738C86.1745 12.5724 86.0359 12.4236 85.88 12.3273C85.724 12.231 85.5508 12.1784 85.3861 12.1609C85.2215 12.1434 85.0743 12.1434 84.9616 12.1609C84.8404 12.1697 84.7711 12.1872 84.7537 12.196V11.9333C85.3255 11.9596 85.8886 11.8808 86.4604 11.7057C87.1188 11.5043 87.7339 11.2329 88.3144 10.8827C88.8948 10.5325 89.4146 10.1823 89.8738 9.8233C90.3243 9.46434 90.8094 9.02658 91.3379 8.51878V25.3637C91.3292 25.5126 91.3292 25.6614 91.3292 25.819C91.2946 26.5895 91.3379 27.3512 91.4678 28.1129C91.5891 28.8746 91.9443 29.5137 92.5334 30.039L92.5074 29.9865Z" fill="white"/>
<path d="M131.917 29.9865C132.116 30.1353 132.342 30.2229 132.601 30.2404C132.861 30.2579 133.113 30.2579 133.372 30.2404C133.468 30.2404 133.554 30.2229 133.632 30.2141V30.4768H122.942V30.2141C123.028 30.2141 123.106 30.2316 123.193 30.2404C123.462 30.2666 123.722 30.2666 123.973 30.2404C124.224 30.2141 124.449 30.1353 124.648 29.9865C125.134 29.54 125.463 29.0234 125.619 28.428C125.775 27.8327 125.853 27.3512 125.853 26.9747V13.1853C125.775 12.0559 125.472 11.3029 124.943 10.9265C124.415 10.55 123.765 10.4274 123.011 10.55C122.257 10.6726 121.504 10.9089 120.759 11.2592C120.014 11.6094 119.39 11.9508 118.879 12.266C118.376 12.5899 118.108 12.765 118.082 12.7913C117.943 12.9051 117.778 13.0452 117.605 13.194C117.423 13.3429 117.25 13.4917 117.068 13.6406C116.886 13.7894 116.687 13.9557 116.453 14.1484C116.453 14.1746 116.453 14.2622 116.462 14.411C116.47 14.5599 116.479 14.735 116.496 14.9276C116.505 15.1202 116.522 15.2865 116.531 15.4354C116.54 15.5842 116.54 15.663 116.54 15.6718V27.0885C116.54 27.4825 116.635 27.964 116.791 28.5244C116.955 29.0847 117.267 29.575 117.726 29.9952C117.926 30.1441 118.151 30.2316 118.411 30.2491C118.671 30.2666 118.922 30.2666 119.182 30.2491C119.269 30.2491 119.347 30.2316 119.433 30.2229V30.4855H108.76V30.2229C108.847 30.2229 108.924 30.2404 109.011 30.2491C109.271 30.2754 109.522 30.2754 109.782 30.2491C110.042 30.2229 110.267 30.1441 110.467 29.9952C110.882 29.6363 111.177 29.2073 111.342 28.717C111.506 28.2267 111.61 27.7714 111.636 27.3687C111.636 27.3687 111.645 27.3249 111.645 27.3074V25.1449C111.645 23.779 111.645 22.2031 111.645 20.4083C111.645 18.6135 111.645 16.3196 111.645 13.5267V13.1853C111.619 12.5899 111.523 12.1084 111.35 11.7319C111.056 11.1016 110.614 10.7251 110.025 10.6025C109.444 10.4799 108.803 10.5062 108.11 10.6988C107.417 10.8914 106.75 11.1541 106.118 11.478C105.476 11.802 104.957 12.0996 104.541 12.3711C104.125 12.6425 103.908 12.7826 103.891 12.8088C103.363 13.2291 102.843 13.6668 102.34 14.1133V26.9747C102.34 27.3512 102.418 27.8415 102.574 28.428C102.73 29.0234 103.051 29.54 103.545 29.9865C103.744 30.1441 103.969 30.2316 104.22 30.2491C104.472 30.2666 104.731 30.2579 105 30.2404C105.087 30.2404 105.165 30.2316 105.251 30.2316V30.4855H94.5779V30.2316C94.6646 30.2316 94.7425 30.2316 94.8292 30.2404C95.0891 30.2666 95.3403 30.2666 95.6002 30.2491C95.8601 30.2316 96.0854 30.1441 96.2846 29.9865C96.7611 29.5487 97.0817 29.0322 97.2376 28.4368C97.3935 27.8415 97.4715 27.3599 97.4715 26.9834V13.3779C97.4369 12.9839 97.3416 12.695 97.177 12.5111C97.0123 12.3273 96.8218 12.2047 96.6138 12.1522C96.4059 12.0996 96.2153 12.0821 96.0507 12.0996C95.8861 12.1172 95.7995 12.1259 95.7735 12.1347V11.872C96.3453 11.8983 96.917 11.8195 97.4802 11.6444C98.1386 11.443 98.7537 11.1716 99.3341 10.8214C99.9146 10.4712 100.434 10.121 100.885 9.76202C101.344 9.40306 101.829 8.9653 102.349 8.4575V13.4479C103.579 12.3623 104.879 11.373 106.256 10.4975C107.417 9.70949 108.673 9.11413 110.025 8.7114H110.051C110.051 8.7114 110.068 8.7114 110.085 8.70264C110.657 8.5538 111.186 8.47501 111.662 8.46625H111.74C112.45 8.46625 113.066 8.59758 113.594 8.85148C114.122 9.10538 114.556 9.45559 114.911 9.9021C115.249 10.3223 115.526 10.7864 115.743 11.3117C116.046 12.0559 116.262 12.8263 116.392 13.6143C117.666 12.4761 119.017 11.443 120.447 10.515C121.616 9.727 122.873 9.13165 124.215 8.72891H124.224C124.224 8.72891 124.259 8.72015 124.276 8.72015C124.856 8.57131 125.385 8.49252 125.87 8.48376H125.983C126.762 8.48376 127.421 8.64136 127.975 8.95654C128.521 9.27173 128.972 9.68322 129.327 10.1998C129.682 10.7163 129.959 11.2767 130.167 11.8983C130.375 12.5111 130.522 13.1328 130.618 13.7631L130.696 14.3672C130.722 14.6649 130.739 15.1027 130.756 15.698V27.1323C130.756 27.5263 130.851 28.0078 131.016 28.5681C131.181 29.1285 131.493 29.6188 131.952 30.0215L131.917 29.9865Z" fill="white"/>
<path d="M155.299 29.9865C155.499 30.1441 155.724 30.2316 155.975 30.2491C156.226 30.2666 156.486 30.2579 156.755 30.2404C156.842 30.2404 156.92 30.2316 157.006 30.2316V30.4855H154.468C153.766 30.4855 153.272 30.4768 152.986 30.4768C152.839 30.4768 152.692 30.4768 152.536 30.4855C152.233 30.4855 151.921 30.4855 151.618 30.4768C151.314 30.4592 151.011 30.3892 150.725 30.2754C149.954 29.8902 149.495 29.3298 149.348 28.5856C149.2 27.8415 149.157 27.0798 149.209 26.283C149.209 26.0379 149.218 25.8015 149.218 25.5826C148.126 26.5632 146.939 27.4825 145.674 28.3493C144.41 29.216 143.058 29.8464 141.62 30.2491C141.083 30.3892 140.537 30.4768 139.983 30.503C139.064 30.503 138.267 30.2666 137.592 29.8026C136.916 29.3386 136.387 28.6907 135.998 27.8502C135.547 26.8259 135.278 25.7665 135.192 24.6721C135.105 23.5777 135.071 22.4745 135.105 21.3714C135.105 21.0387 135.114 20.706 135.114 20.382V13.588C135.114 13.2291 135.045 12.9489 134.941 12.7475C134.837 12.5462 134.698 12.3973 134.533 12.3098C134.369 12.2135 134.204 12.1609 134.04 12.1434C133.875 12.1259 133.736 12.1172 133.615 12.1434C133.494 12.1697 133.424 12.1697 133.407 12.1697V11.9158C133.988 11.9333 134.559 11.8545 135.123 11.6794C135.781 11.478 136.396 11.2066 136.976 10.8564C137.557 10.5062 138.077 10.156 138.527 9.79704C138.986 9.43807 139.472 9.00032 139.991 8.49252V23.4288C139.991 23.6915 139.991 23.9542 139.983 24.2343C139.948 24.7509 139.948 25.2762 139.983 25.8015C140.009 26.3268 140.121 26.8083 140.303 27.2549C140.598 27.8765 141.022 28.2529 141.568 28.3755C142.114 28.5068 142.694 28.4981 143.318 28.3405C143.933 28.1917 144.496 27.999 144.99 27.7714C146.558 27.0535 147.97 26.1079 149.244 24.9347V13.6055C149.244 13.2553 149.192 12.9752 149.079 12.7738C148.967 12.5724 148.828 12.4236 148.672 12.3273C148.516 12.231 148.343 12.1784 148.178 12.1609C148.014 12.1434 147.866 12.1434 147.754 12.1609C147.632 12.1697 147.563 12.1872 147.546 12.196V11.9333C148.118 11.9596 148.689 11.8808 149.252 11.7057C149.911 11.5043 150.526 11.2329 151.115 10.8827C151.704 10.5325 152.215 10.1823 152.674 9.8233C153.125 9.46434 153.61 9.02658 154.139 8.51878V25.3637C154.13 25.5126 154.13 25.6614 154.13 25.819C154.095 26.5895 154.139 27.3512 154.269 28.1129C154.39 28.8746 154.745 29.5137 155.334 30.039L155.299 29.9865Z" fill="white"/>
<path d="M180.536 30.0127C180.735 30.1703 180.96 30.2579 181.22 30.2754C181.48 30.2929 181.731 30.2841 181.991 30.2666C182.078 30.2666 182.173 30.2579 182.251 30.2579V30.5118H171.561V30.2579C171.647 30.2579 171.734 30.2579 171.821 30.2666C172.08 30.2929 172.332 30.2929 172.592 30.2754C172.851 30.2579 173.077 30.1703 173.276 30.0127C173.761 29.5662 174.073 29.0497 174.238 28.4631C174.402 27.8765 174.472 27.3862 174.472 27.001V13.2116C174.394 12.0821 174.099 11.3292 173.562 10.9527C173.033 10.5762 172.384 10.4537 171.63 10.5762C170.868 10.6988 170.123 10.9352 169.377 11.2942C168.632 11.6531 168.009 11.9858 167.498 12.301C166.986 12.6162 166.726 12.7913 166.701 12.8263C166.172 13.2466 165.661 13.6843 165.158 14.1308V26.9922C165.158 27.3687 165.236 27.859 165.392 28.4456C165.548 29.0409 165.869 29.5575 166.345 30.004C166.545 30.1616 166.77 30.2491 167.03 30.2666C167.29 30.2841 167.541 30.2754 167.801 30.2579C167.896 30.2579 167.983 30.2491 168.061 30.2491V30.503H157.37V30.2491C157.457 30.2491 157.535 30.2491 157.621 30.2579C157.89 30.2841 158.15 30.2841 158.401 30.2666C158.652 30.2491 158.877 30.1616 159.068 30.004C159.553 29.5662 159.882 29.0497 160.038 28.4631C160.194 27.8677 160.272 27.3862 160.272 27.0097V13.5793C160.272 13.2291 160.203 12.9489 160.099 12.7475C159.995 12.5462 159.856 12.3973 159.692 12.3098C159.527 12.2222 159.363 12.1697 159.198 12.1434C159.033 12.1172 158.895 12.1172 158.774 12.1347C158.661 12.1434 158.583 12.1609 158.566 12.1697V11.9158C159.146 11.9333 159.718 11.8545 160.281 11.6794C160.931 11.478 161.554 11.2066 162.135 10.8564C162.715 10.5062 163.235 10.156 163.686 9.79704C164.145 9.43807 164.63 9.00032 165.15 8.49252V13.483C166.38 12.3973 167.671 11.408 169.04 10.5325C170.209 9.74451 171.465 9.14915 172.808 8.74642H172.834C172.834 8.74642 172.86 8.74642 172.869 8.73766C173.155 8.65886 173.432 8.60633 173.701 8.56256C173.969 8.52754 174.22 8.51003 174.463 8.50127H174.55C175.58 8.51878 176.421 8.79019 177.062 9.3155C177.703 9.84081 178.188 10.5062 178.517 11.3029C178.847 12.0996 179.08 12.9314 179.202 13.7806C179.236 13.9908 179.262 14.1921 179.28 14.3847C179.28 14.5336 179.297 15.234 179.306 16.5123C179.306 17.7905 179.323 19.2439 179.323 20.8811C179.323 22.5183 179.332 24.602 179.34 27.141C179.358 27.535 179.444 28.0166 179.609 28.5769C179.774 29.1372 180.077 29.6275 180.536 30.0302V30.0127Z" fill="white"/>
<path d="M212.842 30.0127C213.041 30.1703 213.266 30.2579 213.526 30.2754C213.786 30.2929 214.037 30.2841 214.297 30.2666C214.392 30.2666 214.479 30.2579 214.557 30.2579V30.5118H203.866V30.2579C203.953 30.2579 204.04 30.2579 204.126 30.2666C204.386 30.2929 204.637 30.2929 204.897 30.2754C205.157 30.2579 205.382 30.1703 205.582 30.0127C206.067 29.5662 206.379 29.0497 206.535 28.4631C206.691 27.8765 206.769 27.3862 206.769 27.001V13.2116C206.691 12.0821 206.387 11.3292 205.859 10.9527C205.33 10.5762 204.681 10.4537 203.927 10.5762C203.165 10.6988 202.42 10.9352 201.674 11.2942C200.929 11.6531 200.306 11.9858 199.795 12.301C199.292 12.6162 199.023 12.7913 198.998 12.8263C198.469 13.2466 197.949 13.6843 197.455 14.1308V26.9922C197.455 27.3687 197.533 27.859 197.689 28.4456C197.845 29.0409 198.166 29.5575 198.642 30.004C198.842 30.1616 199.067 30.2491 199.327 30.2666C199.587 30.2841 199.838 30.2754 200.098 30.2579C200.193 30.2579 200.28 30.2491 200.358 30.2491V30.503H189.667V30.2491C189.754 30.2491 189.832 30.2491 189.918 30.2579C190.187 30.2841 190.447 30.2841 190.698 30.2666C190.949 30.2491 191.183 30.1616 191.365 30.004C191.85 29.5662 192.179 29.0497 192.335 28.4631C192.491 27.8677 192.569 27.3862 192.569 27.0097V13.5793C192.569 13.2291 192.5 12.9489 192.396 12.7475C192.292 12.5462 192.153 12.3973 191.989 12.3098C191.824 12.2222 191.66 12.1697 191.495 12.1434C191.33 12.1172 191.192 12.1172 191.071 12.1347C190.958 12.1434 190.889 12.1609 190.863 12.1697V11.9158C191.443 11.9333 192.015 11.8545 192.578 11.6794C193.236 11.478 193.851 11.2066 194.432 10.8564C195.012 10.5062 195.532 10.156 195.983 9.79704C196.442 9.43807 196.927 9.00032 197.447 8.49252V13.483C198.677 12.3973 199.968 11.408 201.337 10.5325C202.506 9.74451 203.762 9.14915 205.105 8.74642H205.131C205.131 8.74642 205.157 8.74642 205.166 8.73766C205.452 8.65886 205.729 8.60633 205.998 8.56256C206.266 8.52754 206.517 8.51003 206.76 8.50127H206.847C207.886 8.51878 208.718 8.79019 209.359 9.3155C210 9.84081 210.485 10.5062 210.814 11.3029C211.144 12.0996 211.377 12.9314 211.499 13.7806C211.533 13.9908 211.559 14.1921 211.577 14.3847C211.577 14.5336 211.594 15.234 211.603 16.5123C211.603 17.7905 211.62 19.2439 211.62 20.8811C211.62 22.5183 211.629 24.602 211.637 27.141C211.655 27.535 211.741 28.0166 211.906 28.5769C212.071 29.1372 212.374 29.6275 212.833 30.0302L212.842 30.0127Z" fill="white"/>
<path d="M236.215 29.9865C236.415 30.1441 236.64 30.2316 236.891 30.2491C237.142 30.2666 237.402 30.2579 237.671 30.2404C237.757 30.2404 237.835 30.2316 237.922 30.2316V30.4855H235.384C234.682 30.4855 234.188 30.4768 233.902 30.4768C233.755 30.4768 233.608 30.4768 233.452 30.4855C233.148 30.4855 232.837 30.4855 232.533 30.4768C232.23 30.4592 231.927 30.3892 231.641 30.2754C230.87 29.8902 230.411 29.3298 230.264 28.5856C230.116 27.8415 230.073 27.0798 230.125 26.283C230.125 26.0379 230.134 25.8015 230.134 25.5826C229.042 26.5632 227.855 27.4825 226.59 28.3493C225.325 29.216 223.974 29.8464 222.536 30.2491C221.999 30.3892 221.453 30.4768 220.898 30.503C219.98 30.503 219.183 30.2666 218.507 29.8026C217.832 29.3386 217.303 28.6907 216.913 27.8502C216.463 26.8259 216.194 25.7665 216.108 24.6721C216.021 23.5777 215.986 22.4745 216.021 21.3714C216.021 21.0387 216.03 20.706 216.03 20.382V13.588C216.03 13.2291 215.96 12.9489 215.856 12.7475C215.752 12.5462 215.614 12.3973 215.449 12.3098C215.285 12.2135 215.12 12.1609 214.955 12.1434C214.791 12.1259 214.652 12.1172 214.531 12.1434C214.418 12.1609 214.349 12.1697 214.323 12.1697V11.9158C214.903 11.9333 215.475 11.8545 216.038 11.6794C216.697 11.478 217.312 11.2066 217.892 10.8564C218.473 10.5062 218.993 10.156 219.443 9.79704C219.902 9.43807 220.387 9.00032 220.907 8.49252V23.4288C220.907 23.6915 220.907 23.9542 220.898 24.2343C220.864 24.7509 220.864 25.2762 220.898 25.8015C220.924 26.3268 221.037 26.8083 221.219 27.2549C221.514 27.8765 221.938 28.2529 222.484 28.3755C223.03 28.5068 223.61 28.4981 224.234 28.3405C224.849 28.1917 225.412 27.999 225.906 27.7714C227.474 27.0535 228.886 26.1079 230.16 24.9347V13.6055C230.16 13.2553 230.108 12.9752 229.995 12.7738C229.882 12.5724 229.744 12.4236 229.588 12.3273C229.423 12.231 229.259 12.1784 229.094 12.1609C228.929 12.1434 228.782 12.1434 228.67 12.1609C228.548 12.1697 228.479 12.1872 228.462 12.196V11.9333C229.033 11.9596 229.605 11.8808 230.168 11.7057C230.827 11.5043 231.442 11.2329 232.031 10.8827C232.62 10.5325 233.131 10.1823 233.59 9.8233C234.041 9.46434 234.526 9.02658 235.054 8.51878V25.3637C235.046 25.5126 235.046 25.6614 235.046 25.819C235.011 26.5895 235.054 27.3512 235.184 28.1129C235.306 28.8746 235.661 29.5137 236.25 30.039L236.215 29.9865Z" fill="white"/>
<path d="M254.954 8.49252C254.954 8.5538 254.954 8.76393 254.954 9.13164C254.954 9.49936 254.963 9.91961 254.972 10.3836C254.972 10.8477 254.989 11.443 254.998 12.1609C254.114 11.8895 253.317 11.7319 252.615 11.6706C251.913 11.6094 251.16 11.6706 250.363 11.8545C249.557 12.0384 248.777 12.4236 248.024 13.0189C247.382 13.9557 246.906 14.7962 246.585 15.5492C246.265 16.3021 246.092 16.7574 246.066 16.9237V26.9834C246.066 27.3599 246.135 27.8502 246.291 28.4368C246.447 29.0322 246.767 29.5575 247.261 30.004C247.46 30.1528 247.686 30.2404 247.946 30.2579C248.205 30.2754 248.457 30.2666 248.717 30.2491C248.803 30.2491 248.881 30.2404 248.968 30.2404V30.4943H238.295V30.2404C238.381 30.2404 238.459 30.2404 238.546 30.2491C238.814 30.2754 239.074 30.2754 239.325 30.2579C239.577 30.2404 239.802 30.1528 240.001 30.004C240.486 29.5575 240.798 29.0409 240.954 28.4456C241.11 27.8502 241.188 27.3687 241.188 26.9922V13.6143C241.188 13.2553 241.136 12.9752 241.024 12.7738C240.911 12.5724 240.772 12.4236 240.616 12.336C240.46 12.2485 240.287 12.1872 240.123 12.1697C239.958 12.1522 239.811 12.1522 239.698 12.1697C239.577 12.1784 239.507 12.196 239.49 12.2047V11.9421C240.062 11.9683 240.634 11.8895 241.197 11.7144C241.855 11.5043 242.47 11.2241 243.059 10.8827C243.64 10.5412 244.16 10.1823 244.61 9.81455C245.069 9.45558 245.554 9.01783 246.074 8.51003V15.4967C246.161 15.3128 246.248 15.1114 246.351 14.9101C246.681 14.2096 247.131 13.4479 247.703 12.6337C248.561 11.443 249.531 10.5062 250.614 9.80579C251.948 8.94778 253.395 8.51878 254.963 8.50127L254.954 8.49252Z" fill="white"/>
<path d="M278.293 29.9865C278.493 30.1441 278.718 30.2316 278.969 30.2491C279.22 30.2666 279.48 30.2579 279.749 30.2404C279.835 30.2404 279.913 30.2316 280 30.2316V30.4855H277.462C276.76 30.4855 276.266 30.4768 275.98 30.4768C275.833 30.4768 275.686 30.4768 275.53 30.4855C275.227 30.4855 274.915 30.4855 274.611 30.4768C274.308 30.4592 274.005 30.3892 273.719 30.2754C272.948 29.8902 272.489 29.3298 272.342 28.5856C272.194 27.8415 272.151 27.0798 272.203 26.283C272.203 26.0379 272.212 25.8015 272.212 25.5826C271.12 26.5632 269.933 27.4825 268.668 28.3493C267.403 29.216 266.052 29.8464 264.614 30.2491C264.077 30.3892 263.531 30.4768 262.976 30.503C262.058 30.503 261.261 30.2666 260.585 29.8026C259.91 29.3386 259.381 28.6907 258.991 27.8502C258.541 26.8259 258.272 25.7665 258.186 24.6721C258.09 23.5777 258.064 22.4745 258.099 21.3714C258.099 21.0387 258.108 20.706 258.108 20.382V13.588C258.108 13.2291 258.038 12.9489 257.934 12.7475C257.83 12.5462 257.692 12.3973 257.527 12.3098C257.363 12.2135 257.198 12.1609 257.033 12.1434C256.869 12.1259 256.73 12.1172 256.609 12.1434C256.496 12.1609 256.427 12.1697 256.401 12.1697V11.9158C256.981 11.9333 257.553 11.8545 258.116 11.6794C258.775 11.478 259.39 11.2066 259.97 10.8564C260.551 10.5062 261.071 10.156 261.521 9.79704C261.98 9.43807 262.465 9.00032 262.985 8.49252V23.4288C262.985 23.6915 262.985 23.9542 262.976 24.2343C262.942 24.7509 262.942 25.2762 262.976 25.8015C263.002 26.3268 263.115 26.8083 263.297 27.2549C263.592 27.8765 264.016 28.2529 264.562 28.3755C265.108 28.5068 265.688 28.4981 266.312 28.3405C266.927 28.1917 267.49 27.999 267.984 27.7714C269.552 27.0535 270.964 26.1079 272.238 24.9347V13.6055C272.238 13.2553 272.186 12.9752 272.073 12.7738C271.96 12.5724 271.822 12.4236 271.666 12.3273C271.501 12.231 271.337 12.1784 271.172 12.1609C271.007 12.1434 270.86 12.1434 270.748 12.1609C270.626 12.1697 270.557 12.1872 270.54 12.196V11.9333C271.111 11.9596 271.683 11.8808 272.246 11.7057C272.905 11.5043 273.52 11.2329 274.109 10.8827C274.698 10.5325 275.209 10.1823 275.668 9.8233C276.119 9.46434 276.604 9.02658 277.132 8.51878V25.3637C277.124 25.5126 277.124 25.6614 277.124 25.819C277.089 26.5895 277.132 27.3512 277.262 28.1129C277.384 28.8746 277.739 29.5137 278.328 30.039L278.293 29.9865Z" fill="white"/>
<path d="M42.1126 5.74339L39.2624 2.8717L42.1126 0L44.9629 2.8717L42.1126 5.74339Z" fill="white"/>
<path d="M82.4087 0.220787L79.5662 3.09334L82.4087 5.96589L85.2511 3.09334L82.4087 0.220787Z" fill="white"/>
<path d="M145.21 0.237343L142.368 3.10989L145.21 5.98245L148.053 3.10989L145.21 0.237343Z" fill="white"/>
<path d="M145.21 0.237343L142.368 3.10989L145.21 5.98245L148.053 3.10989L145.21 0.237343Z" fill="white"/>
</g>
<defs>
<clipPath id="clip0_23_746">
<rect width="280" height="55" fill="white"/>
</clipPath>
</defs>
</svg>
